<?xml version="1.0" encoding="utf-8"?>
<!-- Generator: Adobe Illustrator 16.0.0, SVG Export Plug-In . SVG Version: 6.00 Build 0)  -->
<!DOCTYPE svg PUBLIC "-//W3C//DTD SVG 1.1//EN" "http://www.w3.org/Graphics/SVG/1.1/DTD/svg11.dtd">
<svg version="1.1" id="Layer_1" xmlns="http://www.w3.org/2000/svg" xmlns:xlink="http://www.w3.org/1999/xlink" x="0px" y="0px"
	 width="1329px" height="160px" viewBox="0 0 1329 160" enable-background="new 0 0 1329 160" xml:space="preserve">
<circle opacity="0.6" fill="#028CB9" enable-background="new    " cx="1011" cy="45" r="1.5"/>
<circle opacity="0.6" fill="#028CB9" enable-background="new    " cx="678.5" cy="55" r="1.5"/>
<circle opacity="0.6" fill="#028CB9" enable-background="new    " cx="811.5" cy="75" r="1.5"/>
<circle opacity="0.6" fill="#028CB9" enable-background="new    " cx="507.949" cy="74.864" r="1.5"/>
<circle opacity="0.6" fill="#028CB9" enable-background="new    " cx="1210.5" cy="55" r="1.5"/>
<circle opacity="0.6" fill="#028CB9" enable-background="new    " cx="1077.5" cy="75" r="1.5"/>
<circle opacity="0.6" fill="#028CB9" enable-background="new    " cx="1144" cy="25" r="1.5"/>
<circle opacity="0.6" fill="#028CB9" enable-background="new    " cx="878" cy="25" r="1.5"/>
<circle opacity="0.6" fill="#028CB9" enable-background="new    " cx="944.5" cy="55" r="1.5"/>
<circle opacity="0.6" fill="#028CB9" enable-background="new    " cx="551.857" cy="56.122" r="1.5"/>
<circle opacity="0.6" fill="#028CB9" enable-background="new    " cx="745" cy="45" r="1.5"/>
<circle opacity="0.6" fill="#028CB9" enable-background="new    " cx="441.449" cy="44.864" r="1.5"/>
<circle opacity="0.6" fill="#028CB9" enable-background="new    " cx="1041" cy="94" r="1.5"/>
<circle opacity="0.6" fill="#028CB9" enable-background="new    " cx="708.5" cy="104" r="1.5"/>
<circle opacity="0.6" fill="#028CB9" enable-background="new    " cx="841.5" cy="124" r="1.5"/>
<circle opacity="0.6" fill="#028CB9" enable-background="new    " cx="575.5" cy="124" r="1.5"/>
<circle opacity="0.6" fill="#028CB9" enable-background="new    " cx="1240.5" cy="104" r="1.5"/>
<circle opacity="0.6" fill="#028CB9" enable-background="new    " cx="1107.5" cy="124" r="1.5"/>
<circle opacity="0.6" fill="#028CB9" enable-background="new    " cx="1174" cy="74" r="1.5"/>
<circle opacity="0.6" fill="#028CB9" enable-background="new    " cx="908" cy="74" r="1.5"/>
<circle opacity="0.6" fill="#028CB9" enable-background="new    " cx="974.5" cy="104" r="1.5"/>
<circle opacity="0.6" fill="#028CB9" enable-background="new    " cx="642" cy="74" r="1.5"/>
<circle opacity="0.6" fill="#028CB9" enable-background="new    " cx="775" cy="94" r="1.5"/>
<circle opacity="0.6" fill="#028CB9" enable-background="new    " cx="471.449" cy="93.864" r="1.5"/>
<circle opacity="0.6" fill="#028CB9" enable-background="new    " cx="148.197" cy="85.313" r="1.5"/>
<circle opacity="0.6" fill="#028CB9" enable-background="new    " cx="54.5" cy="23" r="1.5"/>
<circle opacity="0.6" fill="#028CB9" enable-background="new    " cx="178.197" cy="134.313" r="1.5"/>
<circle opacity="0.6" fill="#028CB9" enable-background="new    " cx="18" cy="122" r="1.5"/>
<circle opacity="0.6" fill="#028CB9" enable-background="new    " cx="111.697" cy="104.313" r="1.5"/>
<g opacity="0.6">
	<circle opacity="0.05" fill="#FFFFFF" enable-background="new    " cx="538.197" cy="42.782" r="6.738"/>
	<circle fill="#9FD2E7" cx="538.197" cy="42.782" r="2.383"/>
</g>
<g opacity="0.6">
	<circle opacity="0.05" fill="#FFFFFF" enable-background="new    " cx="564.449" cy="34.553" r="10.6"/>
	<circle fill="#9FD2E7" cx="564.449" cy="34.553" r="3.749"/>
	<circle opacity="0.1" fill="#FFFFFF" enable-background="new    " cx="564.289" cy="34.553" r="6.69"/>
</g>
<g opacity="0.6">
	<circle opacity="0.05" fill="#FFFFFF" enable-background="new    " cx="935.732" cy="32.854" r="5.486"/>
	<circle fill="#9FD2E7" cx="935.732" cy="32.854" r="1.94"/>
</g>
<g opacity="0.6">
	<circle opacity="0.05" fill="#FFFFFF" enable-background="new    " cx="931.756" cy="71.144" r="11.245"/>
	<circle fill="#9FD2E7" cx="931.756" cy="71.144" r="3.977"/>
	<circle opacity="0.1" fill="#FFFFFF" enable-background="new    " cx="931.756" cy="71.315" r="7.097"/>
</g>
<g opacity="0.6">
	<circle opacity="0.05" fill="#FFFFFF" enable-background="new    " cx="825.06" cy="66.014" r="5.486"/>
	<circle fill="#9FD2E7" cx="825.06" cy="66.014" r="1.94"/>
</g>
<g opacity="0.6">
	<circle opacity="0.05" fill="#FFFFFF" enable-background="new    " cx="812.377" cy="60.904" r="2.156"/>
	<circle fill="#9FD2E7" cx="812.377" cy="60.904" r="0.762"/>
</g>
<g opacity="0.6">
	<circle opacity="0.05" fill="#FFFFFF" enable-background="new    " cx="916.568" cy="52.244" r="6.738"/>
	<circle fill="#9FD2E7" cx="916.568" cy="52.244" r="2.383"/>
</g>
<g opacity="0.6">
	<circle opacity="0.05" fill="#FFFFFF" enable-background="new    " cx="1026.849" cy="127.147" r="10.6"/>
	<circle fill="#9FD2E7" cx="1026.849" cy="127.147" r="3.749"/>
	<circle opacity="0.1" fill="#FFFFFF" enable-background="new    " cx="1026.688" cy="127.147" r="6.69"/>
</g>
<g opacity="0.6">
	<circle opacity="0.05" fill="#FFFFFF" enable-background="new    " cx="1252.493" cy="96.725" r="5.486"/>
	<circle fill="#9FD2E7" cx="1252.493" cy="96.725" r="1.94"/>
</g>
<g opacity="0.6">
	<circle opacity="0.05" fill="#FFFFFF" enable-background="new    " cx="1308.926" cy="34.689" r="11.245"/>
	<circle fill="#9FD2E7" cx="1308.926" cy="34.689" r="3.977"/>
	<circle opacity="0.1" fill="#FFFFFF" enable-background="new    " cx="1308.926" cy="34.86" r="7.097"/>
</g>
<g opacity="0.6">
	<circle opacity="0.05" fill="#FFFFFF" enable-background="new    " cx="1165.89" cy="69.204" r="5.486"/>
	<circle fill="#9FD2E7" cx="1165.89" cy="69.204" r="1.94"/>
</g>
<circle opacity="0.6" fill="#028CB9" enable-background="new    " cx="1278.731" cy="58.208" r="1.5"/>
<g opacity="0.6">
	<circle opacity="0.05" fill="#FFFFFF" enable-background="new    " cx="1263.732" cy="51.91" r="5.486"/>
	<circle fill="#9FD2E7" cx="1263.732" cy="51.91" r="1.94"/>
</g>
<g opacity="0.6">
	<circle opacity="0.05" fill="#FFFFFF" enable-background="new    " cx="1266.517" cy="65.298" r="2.156"/>
	<circle fill="#9FD2E7" cx="1266.517" cy="65.298" r="0.762"/>
</g>
<g opacity="0.6">
	<circle opacity="0.05" fill="#FFFFFF" enable-background="new    " cx="126.149" cy="76.413" r="11.245"/>
	<circle fill="#9FD2E7" cx="126.149" cy="76.414" r="3.977"/>
	<circle opacity="0.1" fill="#FFFFFF" enable-background="new    " cx="126.294" cy="76.321" r="7.097"/>
</g>
<g opacity="0.6">
	<circle opacity="0.05" fill="#FFFFFF" enable-background="new    " cx="145.342" cy="103.458" r="6.738"/>
	<circle fill="#9FD2E7" cx="145.342" cy="103.457" r="2.383"/>
</g>
<g opacity="0.6">
	<circle opacity="0.05" fill="#FFFFFF" enable-background="new    " cx="197.712" cy="67.002" r="5.486"/>
	<circle fill="#9FD2E7" cx="197.712" cy="67.002" r="1.94"/>
</g>
<g opacity="0.6">
	<circle opacity="0.05" fill="#FFFFFF" enable-background="new    " cx="1271.964" cy="118.511" r="9.21"/>
	<circle fill="#9FD2E7" cx="1271.964" cy="118.511" r="3.257"/>
</g>
<g opacity="0.6">
	<circle opacity="0.05" fill="#FFFFFF" enable-background="new    " cx="552.486" cy="135.042" r="5.485"/>
	<circle fill="#9FD2E7" cx="552.486" cy="135.042" r="1.94"/>
</g>
<g opacity="0.6">
	<circle opacity="0.05" fill="#FFFFFF" enable-background="new    " cx="1074" cy="21.5" r="5.486"/>
	<circle fill="#9FD2E7" cx="1074" cy="21.5" r="1.94"/>
</g>
<g opacity="0.6">
	<circle opacity="0.05" fill="#FFFFFF" enable-background="new    " cx="47.514" cy="140.233" r="5.486"/>
	<circle fill="#9FD2E7" cx="47.514" cy="140.233" r="1.94"/>
</g>
<circle opacity="0.6" fill="#028CB9" enable-background="new    " cx="348.94" cy="78.658" r="1.5"/>
<circle opacity="0.6" fill="#028CB9" enable-background="new    " cx="305.034" cy="117.4" r="1.5"/>
<circle opacity="0.6" fill="#028CB9" enable-background="new    " cx="415.44" cy="108.658" r="1.5"/>
<circle opacity="0.6" fill="#028CB9" enable-background="new    " cx="297.024" cy="19.752" r="1.5"/>
<circle opacity="0.6" fill="#028CB9" enable-background="new    " cx="264.815" cy="86.721" r="1.5"/>
<circle opacity="0.6" fill="#028CB9" enable-background="new    " cx="385.44" cy="59.659" r="1.5"/>
<g opacity="0.6">
	<circle opacity="0.05" fill="#FFFFFF" enable-background="new    " cx="316.668" cy="128.713" r="4.711"/>
	<circle fill="#9FD2E7" cx="316.668" cy="128.713" r="1.666"/>
</g>
<g opacity="0.6">
	<circle fill="#9FD2E7" cx="333.581" cy="136.869" r="2.621"/>
	<circle opacity="0.1" fill="#FFFFFF" enable-background="new    " cx="333.694" cy="136.869" r="4.678"/>
</g>
<g opacity="0.6">
	<circle opacity="0.05" fill="#FFFFFF" enable-background="new    " cx="285.351" cy="28.219" r="5.486"/>
	<circle fill="#9FD2E7" cx="285.351" cy="28.219" r="1.94"/>
</g>
<circle opacity="0.6" fill="#028CB9" enable-background="new    " cx="399.487" cy="37.024" r="1.5"/>
<g opacity="0.6">
	<path opacity="0.05" fill="#FFFFFF" enable-background="new    " d="M410.469,22.394c3.029,0-6.89-4.606-6.89-1.577
		s-2.456,5.486-5.485,5.486c-3.03,0-5.486-2.457-5.486-5.486S407.438,22.394,410.469,22.394z"/>
	<circle fill="#9FD2E7" cx="398.094" cy="20.817" r="1.94"/>
</g>
<g opacity="0.6">
	<circle opacity="0.05" fill="#FFFFFF" enable-background="new    " cx="387.532" cy="29.506" r="2.156"/>
	<circle fill="#9FD2E7" cx="387.532" cy="29.506" r="0.762"/>
</g>
</svg>
