<?xml version="1.0" encoding="utf-8"?>
<!-- Generator: Adobe Illustrator 16.0.0, SVG Export Plug-In . SVG Version: 6.00 Build 0)  -->
<!DOCTYPE svg PUBLIC "-//W3C//DTD SVG 1.1//EN" "http://www.w3.org/Graphics/SVG/1.1/DTD/svg11.dtd">
<svg version="1.1" id="Layer_1" xmlns="http://www.w3.org/2000/svg" xmlns:xlink="http://www.w3.org/1999/xlink" x="0px" y="0px"
	 width="173.2px" height="200px" viewBox="0 0 173.2 200" enable-background="new 0 0 173.2 200" xml:space="preserve">
<pattern  width="17.32" height="30" patternUnits="userSpaceOnUse" id="Blue_Hex_Cube" viewBox="0 -35 17.32 30" overflow="visible">
	<g>
		<polygon fill="none" points="0,-35 17.32,-35 17.32,-5 0,-5 		"/>
		<g>
			<polygon fill="#5EA7DC" points="17.32,-5 17.32,-15 8.66,-10 8.66,-9.999 17.32,-5 			"/>
			<polygon fill="#518CCA" points="8.66,-9.999 8.66,0 17.32,-5 			"/>
		</g>
		<g>
			<polygon fill="#4A74B9" points="8.66,-10 0,-15 0,-5 			"/>
			<polygon fill="#3D67B1" points="0,-5 0,-5 8.66,0 8.66,-10 			"/>
		</g>
		<g>
			<polygon fill="#4A74B9" points="17.32,-25 8.66,-30 8.66,-20 			"/>
			<polygon fill="#5EA7DC" points="8.66,-20 8.66,-30 0,-25 0,-24.999 8.66,-20 			"/>
			<polygon fill="#3D67B1" points="8.66,-20 8.66,-20 17.32,-15 17.32,-25 			"/>
			<polygon fill="#72CCD4" points="8.66,-10 17.32,-15 8.66,-20 			"/>
			<polygon fill="#49B8EA" points="8.66,-20 0,-15 8.66,-10 8.66,-20 			"/>
			<polygon fill="#518CCA" points="0,-24.999 0,-15 8.66,-20 			"/>
		</g>
		<g>
			<polygon fill="#49B8EA" points="17.32,-35 8.66,-30 17.32,-25 17.32,-35 			"/>
			<polygon fill="#518CCA" points="8.66,-39.999 8.66,-30 17.32,-35 			"/>
		</g>
		<g>
			<polygon fill="#3D67B1" points="0,-35 0,-35 8.66,-30 8.66,-40 			"/>
			<polygon fill="#72CCD4" points="0,-25 8.66,-30 0,-35 			"/>
		</g>
	</g>
</pattern>
<rect fill="url(#Blue_Hex_Cube)" width="173.2" height="200"/>
</svg>
